HIERARCHY
ROOT Hips
{
 OFFSET 0.000000 0.000000 0.000000
 CHANNELS 6 Xposition Yposition Zposition Yrotation Xrotation Zrotation
 JOINT Chest
 {
  OFFSET 0.000000 11.188203 -1.243134
  CHANNELS 3 Yrotation Xrotation Zrotation
  JOINT Chest2
  {
   OFFSET 0.000000 8.694345 0.000000
   CHANNELS 3 Yrotation Xrotation Zrotation
   JOINT Chest3
   {
    OFFSET 0.000000 7.947353 -0.067055
    CHANNELS 3 Yrotation Xrotation Zrotation
    JOINT Chest4
    {
     OFFSET 0.000000 7.938462 -0.067123
     CHANNELS 3 Yrotation Xrotation Zrotation
     JOINT Neck
     {
      OFFSET 0.000000 11.072855 0.000000
      CHANNELS 3 Yrotation Xrotation Zrotation
      JOINT Head
      {
       OFFSET 0.000000 7.944435 0.101354
       CHANNELS 3 Yrotation Xrotation Zrotation
       End Site
       {
        OFFSET 0.000000 14.965808 0.007867
       }
      }
     }
     JOINT RightCollar
     {
      OFFSET -2.558781 6.246898 0.000000
      CHANNELS 3 Yrotation Xrotation Zrotation
      JOINT RightShoulder
      {
       OFFSET -13.080511 0.000000 0.000000
       CHANNELS 3 Yrotation Xrotation Zrotation
       JOINT RightElbow
       {
        OFFSET -24.294498 0.000000 0.000000
        CHANNELS 3 Yrotation Xrotation Zrotation
        JOINT RightWrist
        {
         OFFSET -21.795270 0.000000 0.007911
         CHANNELS 3 Yrotation Xrotation Zrotation
         End Site
         {
          OFFSET -17.275366 0.000000 0.000000
         }
        }
       }
      }
     }
     JOINT LeftCollar
     {
      OFFSET 2.558781 6.246898 0.000000
      CHANNELS 3 Yrotation Xrotation Zrotation
      JOINT LeftShoulder
      {
       OFFSET 13.080511 0.000000 0.000000
       CHANNELS 3 Yrotation Xrotation Zrotation
       JOINT LeftElbow
       {
        OFFSET 24.294498 0.000000 0.000000
        CHANNELS 3 Yrotation Xrotation Zrotation
        JOINT LeftWrist
        {
         OFFSET 21.795270 0.000000 0.007911
         CHANNELS 3 Yrotation Xrotation Zrotation
         End Site
         {
          OFFSET 17.275366 0.000000 0.000000
         }
        }
       }
      }
     }
    }
   }
  }
 }
 JOINT RightHip
 {
  OFFSET -9.468707 0.165232 -0.018359
  CHANNELS 3 Yrotation Xrotation Zrotation
  JOINT RightKnee
  {
   OFFSET 0.000000 -44.114159 0.000800
   CHANNELS 3 Yrotation Xrotation Zrotation
   JOINT RightAnkle
   {
    OFFSET 0.000000 -41.090006 0.027028
    CHANNELS 3 Yrotation Xrotation Zrotation
    JOINT RightToe
    {
     OFFSET 0.000000 -6.365594 13.985168
     CHANNELS 3 Yrotation Xrotation Zrotation
     End Site
     {
      OFFSET 0.000000 -4.849568 5.636099
     }
    }
   }
  }
 }
 JOINT LeftHip
 {
  OFFSET 9.468707 0.163024 -0.018114
  CHANNELS 3 Yrotation Xrotation Zrotation
  JOINT LeftKnee
  {
   OFFSET 0.000000 -44.114159 0.000800
   CHANNELS 3 Yrotation Xrotation Zrotation
   JOINT LeftAnkle
   {
    OFFSET 0.000000 -41.090006 0.027028
    CHANNELS 3 Yrotation Xrotation Zrotation
    JOINT LeftToe
    {
     OFFSET 0.000000 -6.365594 13.985168
     CHANNELS 3 Yrotation Xrotation Zrotation
     End Site
     {
      OFFSET 0.000000 -4.849568 5.636099
     }
    }
   }
  }
 }
}
MOTION
Frames: 8
Frame Time: 0.004167
0.000000 96.474457 0.000000 0.000000 6.340192 0.000000 0.000000 -6.340192 0.000000 0.000000 -5.826342 0.000000 0.000000 -0.005910 0.000000 0.000000 5.832252 0.000000 0.000000 12.610213 0.000000 0.000000 -9.243752 0.000000 0.000000 0.000000 0.000000 0.000000 0.000000 0.000000 2.309063 0.000000 0.000000 -2.309063 0.000000 0.000000 0.000000 0.000000 0.000000 0.000000 0.000000 0.000000 -2.309063 0.000000 0.000000 2.309063 0.000000 0.000000 0.000000 -3.591006 0.000000 0.000000 1.872585 0.000000 0.000000 -4.621771 0.000000 0.000000 0.000000 0.000000 0.000000 -3.587706 0.000000 0.000000 1.905768 0.000000 0.000000 -4.658254 0.000000 0.000000 0.000000 0.000000
-37.246207 96.226549 6.277218 9.224141 8.859638 0.285212 1.880881 -2.511268 0.207234 0.826404 -6.941605 0.102996 0.820482 -1.121773 0.186901 0.630140 4.995585 0.142259 4.710483 16.154070 0.014562 8.751588 -5.892484 -1.657154 -0.226338 -0.220803 2.565005 -8.661791 -2.369130 0.085018 0.007493 -1.126681 -2.513663 0.876786 1.301317 4.006720 -0.881461 0.621416 -2.410670 -0.533483 5.020366 -1.572539 -1.280436 0.161163 3.750415 -1.543598 0.234428 2.976504 1.166139 -3.382928 0.776982 1.375770 6.286234 1.379309 -10.225206 -8.669477 3.950688 -0.032649 -1.271059 -4.550654 8.864560 -21.455161 1.488531 -2.742132 11.746416 1.352647 -16.324190 -0.314390 7.021867 0.000000 -0.000000 -0.000000
-37.268455 96.243108 6.198349 9.194966 8.808878 0.345096 1.894703 -2.503132 0.179456 0.833651 -6.938097 0.090607 0.827683 -1.118276 0.175247 0.634627 4.998197 0.133495 4.720549 16.172461 0.007343 8.771933 -5.857267 -1.672823 -0.227878 -0.230664 2.564177 -8.676500 -2.345318 0.009552 -0.007438 -1.040298 -2.493292 0.887783 1.304852 3.991765 -0.882181 0.623455 -2.424010 -0.591598 5.002948 -1.567466 -1.240009 0.229083 3.712428 -1.531949 0.243814 3.014383 1.151779 -3.395243 0.723549 1.369481 6.300426 1.365967 -10.198628 -8.629278 3.984437 -0.031665 -1.280960 -4.586816 8.728546 -21.316566 1.494345 -2.535070 12.159173 1.408448 -16.179949 -0.471457 6.975171 0.000000 -0.000000 0.000000
-37.289385 96.258636 6.121393 9.165722 8.756891 0.408672 1.909729 -2.494203 0.149857 0.841506 -6.934246 0.077404 0.835489 -1.114436 0.162842 0.639510 5.001064 0.124168 4.729132 16.190071 -0.000168 8.789661 -5.823558 -1.688556 -0.228717 -0.241331 2.566246 -8.696199 -2.331291 -0.069386 -0.020537 -0.954241 -2.475923 0.893808 1.309438 3.976479 -0.880699 0.624012 -2.437077 -0.651172 4.978169 -1.564215 -1.206276 0.291799 3.677868 -1.524359 0.248908 3.046828 1.136926 -3.402257 0.664428 1.359710 6.309484 1.354199 -10.167563 -8.588582 4.021036 -0.029889 -1.300338 -4.626131 8.582626 -21.170394 1.502974 -2.312317 12.567264 1.462308 -16.013440 -0.638724 6.911775 -0.000000 0.000000 -0.000000
-37.309064 96.273180 6.046310 9.136337 8.703904 0.474992 1.925817 -2.484613 0.118832 0.849892 -6.930109 0.063567 0.843823 -1.110311 0.149855 0.644743 5.004144 0.114403 4.736457 16.206984 -0.007670 8.805079 -5.791212 -1.703869 -0.228850 -0.252734 2.570789 -8.720181 -2.325072 -0.150579 -0.031295 -0.869219 -2.461493 0.895983 1.314913 3.960977 -0.877229 0.623311 -2.449818 -0.711818 4.947642 -1.562637 -1.178591 0.349266 3.646653 -1.519828 0.250519 3.074461 1.121332 -3.404492 0.600826 1.347347 6.313925 1.343899 -10.132360 -8.547750 4.059172 -0.027436 -1.327349 -4.667367 8.430854 -21.017176 1.513139 -2.078007 12.969462 1.514681 -15.827540 -0.814685 6.833210 0.000000 -0.000000 0.000000
-37.327557 96.286783 5.973058 9.106741 8.650143 0.543111 1.942826 -2.474494 0.086776 0.858729 -6.925742 0.049269 0.852605 -1.105958 0.136455 0.650281 5.007395 0.104327 4.742750 16.223285 -0.014861 8.818493 -5.760083 -1.718277 -0.228272 -0.264804 2.577383 -8.747743 -2.324685 -0.232808 -0.039205 -0.785938 -2.449935 0.895430 1.321115 3.945365 -0.871985 0.621576 -2.462185 -0.773152 4.912976 -1.562586 -1.156314 0.401441 3.618706 -1.517343 0.249452 3.097903 1.104746 -3.402470 0.533947 1.333285 6.314265 1.334962 -10.093370 -8.507145 4.097532 -0.024426 -1.360151 -4.709296 8.277271 -20.857436 1.523597 -1.836259 13.364538 1.566026 -15.625090 -0.997817 6.741078 -0.000000 -0.000000 -0.000000
-37.344929 96.299492 5.901594 9.076868 8.595831 0.612081 1.960612 -2.463980 0.054084 0.867939 -6.921205 0.034690 0.861757 -1.101435 0.122810 0.656077 5.010771 0.094066 4.748233 16.239057 -0.021439 8.830210 -5.730026 -1.731294 -0.226977 -0.277473 2.585603 -8.778191 -2.328150 -0.314855 -0.043762 -0.705108 -2.441176 0.893269 1.327881 3.929750 -0.865183 0.619028 -2.474128 -0.834785 4.875784 -1.563919 -1.138808 0.448280 3.593944 -1.515888 0.246507 3.117772 1.086917 -3.396710 0.464998 1.318414 6.311020 1.327285 -10.050943 -8.467132 4.134803 -0.020986 -1.396897 -4.750690 8.125906 -20.691694 1.533142 -1.591178 13.751256 1.616811 -15.408901 -1.186594 6.637061 -0.000000 0.000000 -0.000000
-37.361247 96.311351 5.831877 9.046653 8.541193 0.680957 1.979036 -2.453205 0.021149 0.877443 -6.916555 0.020003 0.871202 -1.096800 0.109088 0.662086 5.014232 0.083748 4.753132 16.254384 -0.027101 8.840535 -5.700895 -1.742434 -0.224960 -0.290671 2.595025 -8.810838 -2.333484 -0.395499 -0.044461 -0.627439 -2.435135 0.890619 1.335047 3.914236 -0.857038 0.615891 -2.485598 -0.896330 4.837676 -1.566496 -1.125442 0.489743 3.572291 -1.514443 0.242485 3.134689 1.067593 -3.387732 0.395185 1.303624 6.304705 1.320764 -10.005426 -8.428077 4.169670 -0.017255 -1.435742 -4.790325 7.980775 -20.520468 1.540612 -1.346853 14.128379 1.667513 -15.181752 -1.379492 6.522923 0.000000 -0.000000 -0.000000
